<?xml version="1.0" encoding="utf-8" ?>
<svg xmlns="http://www.w3.org/2000/svg" xmlns:xlink="http://www.w3.org/1999/xlink" width="32" height="33">
	<path transform="translate(11 14.238)" d="M8.3009996 17.704C9.3590002 17.704 10.279 17.483999 11.059 17.042999C11.841 16.601999 12.445 15.957 12.87 15.105C13.296 14.253 13.509 13.211 13.509 11.976L13.509 10.326C13.509 9.559 13.389 8.9700003 13.149 8.5559998C12.909 8.1429996 12.563 7.9359999 12.114 7.9359999L12.114 9.0299997C12.114 9.1820002 12.063 9.3039999 11.963 9.3950005C11.862 9.4860001 11.749 9.5310001 11.621 9.5310001C11.487 9.5310001 11.37 9.4860001 11.27 9.3950005C11.169 9.3039999 11.119 9.1820002 11.119 9.0299997L11.119 7.671C11.119 7.3979998 11.049 7.1859999 10.91 7.0370002C10.769 6.888 10.572 6.8140001 10.316 6.8140001C10.116 6.8140001 9.9180002 6.8569999 9.724 6.9419999L9.724 8.6750002C9.724 8.8330002 9.6730003 8.9569998 9.573 9.0489998C9.4720001 9.1400003 9.3590002 9.1850004 9.2309999 9.1850004C9.0970001 9.1850004 8.9799995 9.1400003 8.8800001 9.0489998C8.7790003 8.9569998 8.7290001 8.8330002 8.7290001 8.6750002L8.7290001 6.6680002C8.7290001 6.401 8.658 6.1890001 8.5150003 6.0339999C8.3719997 5.8790002 8.1789999 5.8010001 7.9359999 5.8010001C7.7290001 5.8010001 7.5279999 5.8470001 7.3340001 5.9380002L7.3340001 8.3280001C7.3340001 8.4680004 7.2870002 8.5869999 7.1919999 8.684C7.098 8.7810001 6.9780002 8.8299999 6.8319998 8.8299999C6.6919999 8.8299999 6.5749998 8.7810001 6.4809999 8.684C6.3870001 8.5869999 6.3390002 8.4680004 6.3390002 8.3280001L6.3390002 1.743C6.3390002 1.518 6.277 1.337 6.152 1.2C6.0279999 1.063 5.8590002 0.995 5.6459999 0.995C5.4330001 0.995 5.2620001 1.063 5.131 1.2C5 1.337 4.9349999 1.518 4.9349999 1.743L4.9349999 11.019C4.9349999 11.214 4.8769999 11.373 4.7620001 11.498C4.6459999 11.622 4.5 11.684 4.3239999 11.684C4.165 11.684 4.0240002 11.645 3.9000001 11.566C3.7750001 11.487 3.6700001 11.341 3.585 11.128L2.3629999 8.3369999C2.211 7.9720001 1.982 7.79 1.679 7.79C1.484 7.79 1.326 7.8520002 1.204 7.9770002C1.082 8.1009998 1.022 8.2519999 1.022 8.4280005C1.022 8.5740004 1.049 8.7200003 1.104 8.8660002L2.737 13.463C3.2709999 14.953 4.0139999 16.031 4.9619999 16.701C5.9109998 17.370001 7.0240002 17.704 8.3009996 17.704M8.2650003 18.761999C6.7069998 18.761999 5.3829999 18.344999 4.2919998 17.513C3.2 16.68 2.3659999 15.442 1.788 13.8L0.155 9.1940002C0.106 9.0489998 0.068999998 8.8970003 0.041000001 8.7379999C0.014 8.5799999 0 8.4370003 0 8.3100004C0 7.835 0.15800001 7.4679999 0.47499999 7.2059999C0.79000002 6.9450002 1.1619999 6.8140001 1.587 6.8140001C1.898 6.8140001 2.177 6.9039998 2.427 7.0830002C2.6760001 7.2620001 2.8759999 7.5320001 3.029 7.8899999L3.7490001 9.6689997C3.767 9.7110004 3.7950001 9.7320004 3.8310001 9.7320004C3.8800001 9.7320004 3.904 9.7049999 3.904 9.651L3.904 1.806C3.904 1.253 4.0679998 0.81400001 4.3969998 0.48800001C4.7249999 0.163 5.1409998 0 5.6459999 0C6.145 0 6.5570002 0.163 6.882 0.48800001C7.2069998 0.81400001 7.3699999 1.253 7.3699999 1.806L7.3699999 4.9169998C7.6069999 4.8499999 7.8379998 4.816 8.0640001 4.816C8.4530001 4.816 8.7840004 4.9180002 9.0579996 5.1220002C9.3310003 5.3260002 9.5229998 5.6040001 9.6330004 5.9569998C9.9119997 5.8600001 10.186 5.8109999 10.454 5.8109999C10.83 5.8109999 11.148 5.9060001 11.406 6.098C11.665 6.289 11.843 6.5489998 11.94 6.8779998C12.766 6.8839998 13.407 7.1760001 13.86 7.7529998C14.313 8.3310003 14.54 9.1429996 14.54 10.188L14.54 12.095C14.54 13.505 14.275 14.708 13.746 15.702C13.217 16.697001 12.481 17.454 11.539 17.978001C10.596 18.500999 9.5050001 18.761999 8.2650003 18.761999" fill-rule="evenodd"/>
	<path fill="white" transform="translate(12.022 15.233)" d="M7.2789998 16.709C8.3369999 16.709 9.257 16.489 10.037 16.048C10.819 15.607 11.423 14.962 11.848 14.11C12.274 13.258 12.487 12.216 12.487 10.981L12.487 9.3310003C12.487 8.5640001 12.367 7.9749999 12.127 7.5609999C11.887 7.1479998 11.541 6.941 11.092 6.941L11.092 8.0349998C11.092 8.1870003 11.041 8.309 10.941 8.3999996C10.84 8.4910002 10.727 8.5360003 10.599 8.5360003C10.465 8.5360003 10.348 8.4910002 10.248 8.3999996C10.147 8.309 10.097 8.1870003 10.097 8.0349998L10.097 6.6760001C10.097 6.4029999 10.027 6.191 9.8879995 6.0419998C9.7469997 5.8930001 9.5500002 5.8189998 9.2939997 5.8189998C9.0939999 5.8189998 8.8959999 5.862 8.7019997 5.947L8.7019997 7.6799998C8.7019997 7.8379998 8.651 7.9619999 8.5509996 8.0539999C8.4499998 8.1450005 8.3369999 8.1899996 8.2089996 8.1899996C8.0749998 8.1899996 7.9580002 8.1450005 7.8579998 8.0539999C7.757 7.9619999 7.7069998 7.8379998 7.7069998 7.6799998L7.7069998 5.6729999C7.7069998 5.4060001 7.6360002 5.1939998 7.493 5.039C7.3499999 4.8839998 7.1570001 4.8060002 6.914 4.8060002C6.7069998 4.8060002 6.506 4.8520002 6.3119998 4.9429998L6.3119998 7.3330002C6.3119998 7.473 6.2649999 7.592 6.1700001 7.6890001C6.0760002 7.7859998 5.9559999 7.835 5.8099999 7.835C5.6700001 7.835 5.553 7.7859998 5.4590001 7.6890001C5.3649998 7.592 5.3169999 7.473 5.3169999 7.3330002L5.3169999 0.74800003C5.3169999 0.523 5.2550001 0.34200001 5.1300001 0.205C5.006 0.068000004 4.8369999 0 4.6240001 0C4.4109998 0 4.2399998 0.068000004 4.1090002 0.205C3.9779999 0.34200001 3.9130001 0.523 3.9130001 0.74800003L3.9130001 10.024C3.9130001 10.219 3.855 10.378 3.74 10.503C3.6240001 10.627 3.4779999 10.689 3.302 10.689C3.1429999 10.689 3.0020001 10.65 2.878 10.571C2.753 10.492 2.648 10.346 2.563 10.133L1.341 7.342C1.189 6.9770002 0.95999998 6.7950001 0.65700001 6.7950001C0.46200001 6.7950001 0.30399999 6.8569999 0.182 6.9819999C0.059999999 7.1059999 0 7.257 0 7.4330001C0 7.579 0.027000001 7.7249999 0.082000002 7.8709998L1.715 12.468C2.2490001 13.958 2.9920001 15.036 3.9400001 15.706C4.8889999 16.375 6.0019999 16.709 7.2789998 16.709" fill-rule="evenodd"/>
</svg>
